<?xml version="1.0" encoding="utf-8"?>
<!-- Generator: Adobe Illustrator 15.0.2, SVG Export Plug-In . SVG Version: 6.00 Build 0)  -->
<!DOCTYPE svg PUBLIC "-//W3C//DTD SVG 1.1//EN" "http://www.w3.org/Graphics/SVG/1.1/DTD/svg11.dtd">
<svg version="1.1" id="Layer_1" xmlns="http://www.w3.org/2000/svg" xmlns:xlink="http://www.w3.org/1999/xlink" x="0px" y="0px"
	 width="800px" height="600px" viewBox="0 0 800 600" enable-background="new 0 0 800 600" xml:space="preserve">
<polygon fill="#E6E6E6" points="60.841,33.228 54.563,33.228 54.563,54.104 37.32,54.104 26.463,54.104 17.957,54.104 
	17.958,33.228 12.14,33.228 36.257,9.109 "/>
<g>
	<path fill="#E6E6E6" d="M124.028,11.522h-1.131h-2.132v15.222l-2.631-3.833l-2.941,3.833V11.522H98.959h-6.942v42.582h6.942h23.938
		h1.131c1.598,0,2.907-1.172,2.907-2.606V14.132C126.935,12.697,125.625,11.522,124.028,11.522z"/>
	<path fill="#E6E6E6" d="M127.157,9.023H96.846l-2.479,1.278h6.913h23.942h1.127c0.263,0,0.511,0.046,0.754,0.114h0.054
		c1.156,0,2.099,0.814,2.099,1.811v1.062v34.847v2.639c0.972-0.579,1.614-1.544,1.614-2.639V12.226
		C130.871,10.461,129.206,9.023,127.157,9.023z"/>
</g>
<path fill="#E6E6E6" d="M199.231,25.102c-0.883-0.845-1.895-0.891-2.176-0.885h-2.999c-0.637-1.651-1.957-2.203-2.753-2.242
	l-3.371-0.001c-0.644-1.86-2.178-2.573-3.085-2.682l-0.077-0.009h-3.444v-6.465c0.019-0.352,0-1.459-0.854-2.413
	c-0.8-0.894-2.036-1.347-3.673-1.347c-1.599,0-2.837,0.444-3.681,1.318c-0.98,1.015-1.027,2.231-1.024,2.497v15.575
	c-1.656-1.675-3.212-2.527-4.624-2.527c-3.626,0-4.167,2.105-4.167,3.36c0,1.064,0.456,2.553,0.508,2.718l0.049,0.16l10.386,16.6
	v5.319h21.205l4.98-12.987V28.474C200.432,26.999,200.028,25.865,199.231,25.102z M197.838,40.612l-4.169,10.873h-16.828v-3.47
	l-10.6-16.941c-0.135-0.469-0.343-1.322-0.343-1.792c0-0.369,0.069-0.44,0.092-0.464c0.136-0.139,0.605-0.302,1.481-0.302
	c1.3,0,3.501,2.337,4.579,3.917l0.044-0.03v4.325h2.594v-23.86l-0.001-0.046c0-0.003,0.026-0.362,0.297-0.643
	c0.332-0.344,0.96-0.525,1.815-0.525c0.825,0,1.437,0.164,1.723,0.464c0.192,0.201,0.213,0.451,0.214,0.529l-0.004,0.019v15.45
	h2.594v-6.238h3.257c0.207,0.052,1.055,0.365,1.055,2.023v4.215h2.594v-3.546h2.911c0.001,0,0.002,0,0.003,0l0.094,0l-0.092,0.001
	c0.268,0.08,0.679,0.542,0.679,1.84v4.217h2.592V26.81h2.65l0.057-0.001c0.001,0,0.174,0.037,0.309,0.166
	c0.258,0.248,0.401,0.78,0.401,1.499V40.612L197.838,40.612z"/>
<g>
	<path fill="#E6E6E6" d="M268.031,12.961h1.415c0.863,0,1.562-0.699,1.562-1.562V10.62c0-0.863-0.699-1.562-1.562-1.562h-34.957
		c-0.863,0-1.562,0.699-1.562,1.562v0.78c0,0.863,0.698,1.562,1.562,1.562h2.142c0.4,3.343,2.187,14.461,8.507,18.319
		c-6.703,4.089-8.306,16.341-8.566,18.834h-2.083c-0.863,0-1.562,0.699-1.562,1.562v0.781c0,0.862,0.698,1.561,1.562,1.561h34.957
		c0.863,0,1.562-0.699,1.562-1.561v-0.781c0-0.863-0.699-1.562-1.562-1.562h-1.356c-0.26-2.493-1.863-14.744-8.565-18.834
		C265.845,27.422,267.631,16.304,268.031,12.961z M254.757,29.75l0.005,1.53l-0.005,1.529c3.613,0.01,6.469,2.919,8.49,8.646
		c1.264,3.577,1.787,7.209,1.959,8.66h-25.751c0.172-1.451,0.696-5.083,1.958-8.66c2.022-5.726,4.878-8.635,8.49-8.646l-0.004-1.529
		l0.004-1.53c-3.612-0.01-6.468-2.918-8.49-8.645c-1.132-3.209-1.67-6.461-1.894-8.145h25.623c-0.225,1.683-0.761,4.935-1.895,8.145
		C261.227,26.832,258.37,29.74,254.757,29.75z"/>
	<g>
		<path fill="#E6E6E6" d="M241.603,48.616c0,0,4.165-6.819,10.67-6.819c6.504,0,10.017,6.819,10.017,6.819H241.603z"/>
	</g>
	<g>
		<path fill="#E6E6E6" d="M243.929,23.809h16.803c0,0-1.565,5.291-8.635,5.291C246.168,29.099,243.929,23.809,243.929,23.809z"/>
	</g>
	<g>
		<circle fill="#E6E6E6" cx="252.335" cy="30.838" r="0.974"/>
	</g>
	<g>
		<circle fill="#E6E6E6" cx="252.335" cy="33.856" r="0.974"/>
	</g>
	<g>
		<circle fill="#E6E6E6" cx="252.335" cy="36.872" r="0.974"/>
	</g>
	<g>
		<circle fill="#E6E6E6" cx="252.335" cy="39.889" r="0.974"/>
	</g>
</g>
<polygon fill="#CCCCCC" points="60.841,105.211 54.563,105.211 54.563,126.087 37.32,126.087 26.463,126.087 17.957,126.087 
	17.958,105.211 12.14,105.211 36.257,81.093 "/>
<g>
	<path fill="#CCCCCC" d="M124.028,83.505h-1.131h-2.132v15.222l-2.631-3.833l-2.941,3.833V83.505H98.959h-6.942v42.582h6.942h23.938
		h1.131c1.598,0,2.907-1.172,2.907-2.606V86.116C126.935,84.68,125.625,83.505,124.028,83.505z"/>
	<path fill="#CCCCCC" d="M127.157,81.007H96.846l-2.479,1.278h6.913h23.942h1.127c0.263,0,0.511,0.046,0.754,0.114h0.054
		c1.156,0,2.099,0.814,2.099,1.811v1.062v34.847v2.639c0.972-0.579,1.614-1.544,1.614-2.639V84.209
		C130.871,82.444,129.206,81.007,127.157,81.007z"/>
</g>
<path fill="#CCCCCC" d="M199.231,97.085c-0.883-0.845-1.895-0.891-2.176-0.885h-2.999c-0.637-1.651-1.957-2.203-2.753-2.242
	l-3.371-0.001c-0.644-1.86-2.178-2.573-3.085-2.682l-0.077-0.009h-3.444v-6.465c0.019-0.352,0-1.459-0.854-2.413
	c-0.8-0.894-2.036-1.347-3.673-1.347c-1.599,0-2.837,0.444-3.681,1.318c-0.98,1.015-1.027,2.231-1.024,2.497v15.575
	c-1.656-1.675-3.212-2.527-4.624-2.527c-3.626,0-4.167,2.105-4.167,3.36c0,1.064,0.456,2.553,0.508,2.718l0.049,0.16l10.386,16.6
	v5.319h21.205l4.98-12.987v-12.618C200.432,98.982,200.028,97.849,199.231,97.085z M197.838,112.595l-4.169,10.873h-16.828v-3.47
	l-10.6-16.941c-0.135-0.469-0.343-1.322-0.343-1.792c0-0.369,0.069-0.44,0.092-0.464c0.136-0.139,0.605-0.302,1.481-0.302
	c1.3,0,3.501,2.337,4.579,3.917l0.044-0.03v4.325h2.594v-23.86l-0.001-0.046c0-0.003,0.026-0.362,0.297-0.643
	c0.332-0.344,0.96-0.525,1.815-0.525c0.825,0,1.437,0.164,1.723,0.464c0.192,0.201,0.213,0.451,0.214,0.529l-0.004,0.019v15.45
	h2.594V93.86h3.257c0.207,0.052,1.055,0.365,1.055,2.023v4.215h2.594v-3.546h2.911c0.001,0,0.002,0,0.003,0l0.094,0l-0.092,0.001
	c0.268,0.08,0.679,0.542,0.679,1.84v4.217h2.592v-3.816h2.65l0.057-0.001c0.001,0,0.174,0.037,0.309,0.166
	c0.258,0.248,0.401,0.78,0.401,1.499V112.595L197.838,112.595z"/>
<g>
	<path fill="#CCCCCC" d="M268.031,84.945h1.415c0.863,0,1.562-0.699,1.562-1.562v-0.779c0-0.863-0.699-1.562-1.562-1.562h-34.957
		c-0.863,0-1.562,0.699-1.562,1.562v0.78c0,0.863,0.698,1.562,1.562,1.562h2.142c0.4,3.343,2.187,14.461,8.507,18.319
		c-6.703,4.089-8.306,16.341-8.566,18.834h-2.083c-0.863,0-1.562,0.699-1.562,1.562v0.781c0,0.862,0.698,1.561,1.562,1.561h34.957
		c0.863,0,1.562-0.699,1.562-1.561v-0.781c0-0.863-0.699-1.562-1.562-1.562h-1.356c-0.26-2.493-1.863-14.744-8.565-18.834
		C265.845,99.406,267.631,88.288,268.031,84.945z M254.757,101.734l0.005,1.53l-0.005,1.529c3.613,0.01,6.469,2.919,8.49,8.646
		c1.264,3.577,1.787,7.209,1.959,8.66h-25.751c0.172-1.451,0.696-5.083,1.958-8.66c2.022-5.726,4.878-8.635,8.49-8.646l-0.004-1.529
		l0.004-1.53c-3.612-0.01-6.468-2.918-8.49-8.645c-1.132-3.209-1.67-6.461-1.894-8.145h25.623c-0.225,1.683-0.761,4.935-1.895,8.145
		C261.227,98.815,258.37,101.724,254.757,101.734z"/>
	<g>
		<path fill="#CCCCCC" d="M241.603,120.6c0,0,4.165-6.819,10.67-6.819c6.504,0,10.017,6.819,10.017,6.819H241.603z"/>
	</g>
	<g>
		<path fill="#CCCCCC" d="M243.929,95.792h16.803c0,0-1.565,5.291-8.635,5.291C246.168,101.083,243.929,95.792,243.929,95.792z"/>
	</g>
	<g>
		<circle fill="#CCCCCC" cx="252.335" cy="102.821" r="0.974"/>
	</g>
	<g>
		<circle fill="#CCCCCC" cx="252.335" cy="105.839" r="0.974"/>
	</g>
	<g>
		<circle fill="#CCCCCC" cx="252.335" cy="108.855" r="0.974"/>
	</g>
	<g>
		<circle fill="#CCCCCC" cx="252.335" cy="111.872" r="0.974"/>
	</g>
</g>
<rect id="_x3C_Slice_x3E_" fill="none" width="288" height="144"/>
<rect id="_x3C_Slice_x3E__1_" fill="none" width="72" height="144"/>
<rect id="_x3C_Slice_x3E__2_" x="72" fill="none" width="72" height="144"/>
<rect id="_x3C_Slice_x3E__3_" x="144" fill="none" width="72" height="144"/>
<rect id="_x3C_Slice_x3E__4_" x="216" fill="none" width="72" height="144"/>
<rect id="_x3C_Slice_x3E__5_" y="72" fill="none" width="72" height="72"/>
<rect id="_x3C_Slice_x3E__6_" x="72" y="72" fill="none" width="72" height="72"/>
<rect id="_x3C_Slice_x3E__7_" x="144" y="72" fill="none" width="72" height="72"/>
<rect id="_x3C_Slice_x3E__8_" x="216" y="72" fill="none" width="72" height="72"/>
</svg>
