<svg width="171" height="171" viewBox="0 0 171 171" xmlns="http://www.w3.org/2000/svg"><title>Oval 2 + noun_29784_cc</title><desc>Created with Sketch.</desc><g fill="none"><circle fill="#000" cx="85.5" cy="85.5" r="85.5"/><path d="M58.188 46.062h-5.562V40.5H102.686v5.562H58.188zm9.062-34.437V6.063h-5.562v5.562h5.562zM83.938 22.75v38.936h-5.562v5.562h-5.562V56.124h5.562V28.314h-5.562V22.75h11.124v-5.562H72.814v-5.562H67.25V67.248h-5.562v11.124h5.562V72.81h16.686v-5.56H89.5v-44.5h-5.562zM56.125 83.938H17.188v-5.562h-5.562V89.5H61.686V78.376h-5.562v5.562zm-44.5-16.688H6.063v11.124h5.562V67.25zM6.062 56.125V11.626H.5V67.248h5.562V56.126zm5.563-50.063H6.063v5.562h5.562V6.062zM61.438 23.5v-5.562h-5.562v-5.562H16.938v5.562h-5.562v11.124h5.562v5.562h38.934v-5.562h5.562V23.5h.004z" fill="#fff"/></g></svg>