<svg xmlns="http://www.w3.org/2000/svg" viewBox="0 0 512 512"><path fill="#fff" d="M411.945 50h-312c-27.614 0-50 22.386-50 50v312c0 27.614 22.386 50 50 50h312c27.614 0 50-22.386 50-50V100c0-27.614-22.385-50-50-50zm-230.95 342.99H124.46V210.336h56.536V392.99zm-28.538-206.573c-18.465 0-33.432-15.09-33.432-33.703 0-18.614 14.967-33.704 33.432-33.704 18.463 0 33.432 15.09 33.432 33.704 0 18.613-14.97 33.703-33.433 33.703zM392.865 392.99h-56.262v-95.88c0-26.297-9.988-40.975-30.78-40.975-22.63 0-34.454 15.29-34.454 40.974v95.88h-54.224V210.336h54.223v24.6s16.308-30.172 55.04-30.172 66.455 23.648 66.455 72.572V392.99z"/></svg>