<svg width="85" height="61" viewBox="0 0 85 61" xmlns="http://www.w3.org/2000/svg"><title>noun_43899_cc</title><desc>Created with Sketch.</desc><g fill="#fff"><ellipse id="Oval" cx="32.881" cy="30.35" rx="1.875" ry="2.812"/><ellipse cx="51.631" cy="30.35" rx="1.875" ry="2.812"/><path d="M8.506 51.125h67.5c.518 0 .938-.42.938-.938V6.13c0-.52-.42-.94-.938-.94h-67.5c-.518 0-.938.42-.938.94v44.058c0 .517.42.937.938.937zm.938-44.06H75.07V49.25H9.443V7.066zM81.63 53h-.937V5.188C80.693 2.602 78.59.5 76.005.5h-67.5C5.92.5 3.817 2.602 3.817 5.188V53H2.88C1.327 53 .066 54.262.066 55.812v1.875c0 1.55 1.262 2.812 2.812 2.812h78.75c1.55 0 2.81-1.263 2.81-2.813v-1.875c.004-1.55-1.258-2.812-2.81-2.812zM8.507 2.375h67.5c1.55 0 2.812 1.262 2.812 2.812V53H47.88c-.517 0-.937.42-.937.938 0 .232 0 .938-2.812.938h-3.75c-2.81 0-2.81-.705-2.81-.938 0-.518-.42-.938-.94-.938H5.695V5.188c0-1.55 1.262-2.813 2.812-2.813zm73.125 56.25H2.88c-.515 0-.937-.42-.937-.938v-1.875c0-.517.42-.938.938-.938h32.973c.698 1.873 3.516 1.875 4.528 1.875h3.75c1.014 0 3.832-.003 4.53-1.876h32.97c.517 0 .94.42.94.938v1.875c0 .517-.423.938-.94.938zM47.813 36.125c-.518 0-.938.42-.938.938 0 2.586-2.102 4.688-4.688 4.688s-4.688-2.1-4.688-4.687c0-.518-.42-.938-.94-.938-.517 0-.937.42-.937.938 0 3.618 2.944 6.562 6.562 6.562 3.618 0 6.562-2.944 6.562-6.562.004-.518-.415-.938-.934-.938z"/></g></svg>