<svg width="78" height="101" viewBox="0 0 78 101" xmlns="http://www.w3.org/2000/svg"><title>Launch_1_</title><desc>Created with Sketch.</desc><path d="M64.907 65.612l-.03-6.117.237-.312c1.37-1.82 2.63-3.707 3.746-5.6 3.204-5.42 5.532-11.277 6.916-17.407l.352-1.557.896-3.164c1.554-9.862.617-20.073-2.71-29.522L73.667.092l-1.923.32C61.86 2.06 52.467 6.17 44.58 12.294l-2.34 2.31-1.192 1.058c-4.698 4.174-8.706 9.04-11.908 14.462-1.177 1.99-2.268 4.115-3.237 6.315l-.16.36-5.004 2.727c-6.114 3.328-11.155 8.256-14.636 14.148-1.86 3.15-3.278 6.577-4.173 10.185-.734 2.968-1.113 6.025-1.123 9.093L.8 74.775l5.042 1.248.773-3.595c.45-1.816 1.156-3.525 2.08-5.09 2.317-3.925 6.016-6.936 10.533-8.427l1.545-.51-.02 1.63-.008 1.467.022 1.807-.753.29c-3.11 1.2-5.786 3.24-7.733 5.905l-1.513 2.065L40.913 89.37l1.08-2.318c1.322-2.847 1.848-5.998 1.51-9.114l-.08-.777 2.012-1.075 1.467-.822 1.422-.717.308 1.57c.927 4.72.087 9.465-2.27 13.457-.942 1.593-2.123 3.065-3.53 4.367l-2.647 2.3 1.542 1.755s1.224 1.327 1.938 2.098c.708-.395 1.594-.886 1.594-.886 2.67-1.483 5.167-3.29 7.418-5.373 2.727-2.523 5.042-5.417 6.903-8.568 3.482-5.896 5.363-12.69 5.327-19.654zm-59.165-.118c-.004.013-.01.025-.017.035l-.018.024-.002.003c-.317.538-.572 1.124-.84 1.695.142-.873.268-1.753.48-2.613.812-3.262 2.085-6.355 3.762-9.204.44-.75.917-1.478 1.415-2.187l.104-.144c1.54-2.16 3.332-4.134 5.33-5.895 1.255-1.1 6.27-4.414 7.672-5.34-.807 2.795-2.74 11.66-2.834 12.63-5.067 1.815-12.4 6.508-15.052 10.994zM50.96 12.158c6.183-3.963 13.1-6.73 20.35-8.078 2.097 6.32 3.034 12.965 2.846 19.587-.053 1.81-.178 3.623-.4 5.424C71.02 27.477 50.97 15.63 48.23 14.016c.89-.648 1.803-1.265 2.73-1.857zM39.31 84.296L15.985 70.52c.166-.182.336-.358.51-.532l.122-.12c.208-.2.418-.394.638-.584 1.22-1.055 2.613-1.896 4.154-2.475l18.534 10.948c.25 1.713.173 3.423-.21 5.076-.114.492-.255.98-.424 1.462zm1.942-9.433L23.944 64.64c-.245-10.996 3.036-23.996 8.212-32.775.693-1.172 1.43-2.313 2.204-3.428.67-.967 1.373-1.904 2.1-2.823.198-.25.392-.503.593-.754.05-.06.104-.12.156-.18 1.766-2.14 6.012-6.603 8.728-8.358L73.1 32.365c-.636 2.7-1.626 8.025-3.366 11.525-.036.07-.058.15-.083.224-.12.3-.25.59-.372.884-.456 1.08-.937 2.15-1.46 3.202-.6 1.207-1.24 2.396-1.927 3.565C60.7 60.55 52.097 70.418 41.253 74.863zm14.172 10.435c-.115.167-.23.335-.35.5-.323.456-.655.9-1 1.338-.23.293-.465.582-.704.867-.315.378-.634.753-.967 1.115-.147.17-.3.334-.453.495-.52.55-1.05 1.088-1.607 1.603-.65.604-1.358 1.135-2.053 1.687.37-.516.757-1.02 1.075-1.56.01-.013.016-.028.024-.044.002-.007.008-.014.01-.02.027-.044.05-.096.078-.144.248-.428.478-.86.693-1.306.125-.248.237-.5.35-.755.105-.233.203-.466.297-.7.135-.327.263-.657.38-.99.015-.035.023-.07.035-.107 1.21-3.504.87-10.015.26-13.823 3.267-2.24 7.645-6.51 10.446-9.305-.09 1.136-.947 6.66-1.14 7.776-.523 2.988-1.418 5.884-2.678 8.616-.084.184-.17.364-.258.544-.144.297-.29.59-.44.883-.23.437-.466.87-.716 1.298-.034.058-.064.12-.098.18-.374.627-.774 1.242-1.184 1.85zm2.34-73.533c-1.044-.617-2.4-.27-3.02.78-.617 1.047-.268 2.4.78 3.02 1.046.62 2.4.27 3.02-.776.618-1.05.27-2.407-.78-3.025zm-1.652 2.8c-.495-.293-.662-.935-.37-1.43.296-.5.937-.662 1.432-.37.497.294.666.935.372 1.433-.295.497-.936.66-1.434.366zm14.86 5c-1.05-.62-2.404-.272-3.023.777-.62 1.047-.272 2.4.778 3.02 1.047.62 2.402.272 3.02-.775.62-1.048.27-2.403-.777-3.023zm-1.656 2.8c-.496-.295-.66-.936-.368-1.432.293-.5.934-.662 1.43-.367.498.29.664.932.37 1.43-.294.496-.935.662-1.432.37zm-4.694-6.55c-1.047-.62-2.403-.27-3.023.777-.62 1.047-.27 2.4.778 3.02 1.046.618 2.402.272 3.02-.776.62-1.048.27-2.403-.776-3.022zm-1.654 2.8c-.496-.294-.662-.937-.37-1.432.296-.498.937-.662 1.432-.368.496.293.665.934.37 1.432-.295.497-.937.66-1.432.367zm-8.016 13.16c-3.85-2.273-8.833-.99-11.106 2.857-2.272 3.848-.99 8.833 2.86 11.105 3.85 2.274 8.832.99 11.105-2.857 2.274-3.847.99-8.83-2.858-11.104zM47.296 44.74c-3.298-1.95-4.397-6.217-2.45-9.515 1.95-3.3 6.218-4.396 9.516-2.447 3.3 1.947 4.397 6.215 2.45 9.515-1.95 3.3-6.216 4.397-9.516 2.448z" fill="#222"/></svg>