<?xml version="1.0" encoding="UTF-8" standalone="no"?>
<svg width="171px" height="171px" viewBox="0 0 171 171" version="1.1" xmlns="http://www.w3.org/2000/svg" xmlns:xlink="http://www.w3.org/1999/xlink" xmlns:sketch="http://www.bohemiancoding.com/sketch/ns">
    <!-- Generator: Sketch 3.2.2 (9983) - http://www.bohemiancoding.com/sketch -->
    <title>Oval 2 + noun_29784_cc</title>
    <desc>Created with Sketch.</desc>
    <defs></defs>
    <g id="Page-1" stroke="none" stroke-width="1" fill="none" fill-rule="evenodd" sketch:type="MSPage">
        <g id="Oval-2-+-noun_29784_cc" sketch:type="MSLayerGroup">
            <circle id="Oval-2" fill="#000000" sketch:type="MSShapeGroup" cx="85.5" cy="85.5" r="85.5"></circle>
            <g id="noun_29784_cc" transform="translate(41.000000, 40.000000)" fill="#FFFFFF" sketch:type="MSShapeGroup">
                <g id="Ebene_5_1_">
                    <path d="M17.188,6.062 L11.626,6.062 L11.626,0.5 L17.188,0.5 L22.75,0.5 L28.312,0.5 L33.874,0.5 L39.436,0.5 L45,0.5 L50.562,0.5 L56.124,0.5 L61.686,0.5 L61.686,6.062 L56.124,6.062 L50.562,6.062 L45,6.062 L39.438,6.062 L33.876,6.062 L28.314,6.062 L22.75,6.062 L17.188,6.062 L17.188,6.062 Z M67.25,11.625 L67.25,6.063 L61.688,6.063 L61.688,11.625 L67.25,11.625 L67.25,11.625 Z M83.938,22.75 L83.938,28.312 L83.938,33.874 L83.938,39.436 L83.938,45 L83.938,50.562 L83.938,56.124 L83.938,61.686 L78.376,61.686 L78.376,67.248 L72.814,67.248 L72.814,61.686 L72.814,56.124 L78.376,56.124 L78.376,50.562 L78.376,45 L78.376,39.438 L78.376,33.876 L78.376,28.314 L72.814,28.314 L72.814,22.75 L78.376,22.75 L83.938,22.75 L83.938,17.188 L78.376,17.188 L72.814,17.188 L72.814,11.626 L67.25,11.626 L67.25,17.188 L67.25,22.75 L67.25,28.312 L67.25,33.874 L67.25,39.436 L67.25,45 L67.25,50.562 L67.25,56.124 L67.25,61.686 L67.25,67.248 L61.688,67.248 L61.688,72.81 L61.688,78.372 L67.25,78.372 L67.25,72.81 L72.812,72.81 L78.374,72.81 L83.936,72.81 L83.936,67.25 L89.5,67.25 L89.5,61.688 L89.5,56.126 L89.5,50.564 L89.5,45 L89.5,39.438 L89.5,33.876 L89.5,28.314 L89.5,22.75 L83.938,22.75 L83.938,22.75 Z M56.125,83.938 L50.563,83.938 L45,83.938 L39.438,83.938 L33.876,83.938 L28.314,83.938 L22.75,83.938 L17.188,83.938 L17.188,78.376 L11.626,78.376 L11.626,83.938 L11.626,89.5 L17.188,89.5 L22.75,89.5 L28.312,89.5 L33.874,89.5 L39.436,89.5 L45,89.5 L50.562,89.5 L56.124,89.5 L61.686,89.5 L61.686,83.938 L61.686,78.376 L56.124,78.376 L56.124,83.938 L56.125,83.938 Z M11.625,67.25 L6.063,67.25 L6.063,72.812 L6.063,78.374 L11.625,78.374 L11.625,72.812 L11.625,67.25 L11.625,67.25 Z M6.062,56.125 L6.062,50.563 L6.062,45 L6.062,39.438 L6.062,33.876 L6.062,28.314 L6.062,22.75 L6.062,17.188 L6.062,11.626 L0.5,11.626 L0.5,17.188 L0.5,22.75 L0.5,28.312 L0.5,33.874 L0.5,39.436 L0.5,45 L0.5,50.562 L0.5,56.124 L0.5,61.686 L0.5,67.248 L6.062,67.248 L6.062,61.686 L6.062,56.125 L6.062,56.125 Z M11.625,6.062 L6.063,6.062 L6.063,11.624 L11.625,11.624 L11.625,6.062 L11.625,6.062 Z M61.438,23.5 L61.438,17.938 L55.876,17.938 L55.876,12.376 L50.314,12.376 L44.75,12.376 L39.188,12.376 L33.626,12.376 L28.064,12.376 L22.5,12.376 L16.938,12.376 L16.938,17.938 L11.376,17.938 L11.376,23.5 L11.376,29.062 L16.938,29.062 L16.938,34.624 L22.5,34.624 L28.062,34.624 L33.624,34.624 L39.186,34.624 L44.748,34.624 L50.31,34.624 L55.872,34.624 L55.872,29.062 L61.434,29.062 L61.434,23.5 L61.438,23.5 Z" id="Shape"></path>
                </g>
            </g>
        </g>
    </g>
</svg>