<?xml version="1.0" encoding="UTF-8" standalone="no"?>
<svg width="85px" height="61px" viewBox="0 0 85 61" version="1.1" xmlns="http://www.w3.org/2000/svg" xmlns:xlink="http://www.w3.org/1999/xlink" xmlns:sketch="http://www.bohemiancoding.com/sketch/ns">
    <!-- Generator: Sketch 3.2.2 (9983) - http://www.bohemiancoding.com/sketch -->
    <title>noun_43899_cc</title>
    <desc>Created with Sketch.</desc>
    <defs></defs>
    <g id="Page-1" stroke="none" stroke-width="1" fill="none" fill-rule="evenodd" sketch:type="MSPage">
        <g id="noun_43899_cc" sketch:type="MSLayerGroup" fill="#FFFFFF">
            <ellipse id="Oval" sketch:type="MSShapeGroup" cx="32.881" cy="30.35" rx="1.875" ry="2.812"></ellipse>
            <ellipse id="Oval" sketch:type="MSShapeGroup" cx="51.631" cy="30.35" rx="1.875" ry="2.812"></ellipse>
            <path d="M8.506,51.125 L76.006,51.125 C76.524,51.125 76.944,50.705 76.944,50.187 L76.944,6.129 C76.944,5.61 76.525,5.191 76.006,5.191 L8.506,5.191 C7.988,5.191 7.568,5.61 7.568,6.129 L7.568,50.188 C7.569,50.705 7.988,51.125 8.506,51.125 L8.506,51.125 Z M9.444,7.066 L75.069,7.066 L75.069,49.25 L9.444,49.25 L9.444,7.066 L9.444,7.066 Z" id="Shape" sketch:type="MSShapeGroup"></path>
            <path d="M81.631,53 L80.693,53 L80.693,5.188 C80.693,2.602 78.591,0.5 76.005,0.5 L8.505,0.5 C5.92,0.5 3.817,2.602 3.817,5.188 L3.817,53 L2.879,53 C1.328,53 0.067,54.262 0.067,55.812 L0.067,57.687 C0.067,59.238 1.329,60.499 2.879,60.499 L81.629,60.499 C83.18,60.499 84.441,59.237 84.441,57.687 L84.441,55.812 C84.444,54.262 83.182,53 81.631,53 L81.631,53 Z M8.506,2.375 L76.006,2.375 C77.557,2.375 78.818,3.637 78.818,5.187 L78.818,53 L47.881,53 C47.363,53 46.943,53.42 46.943,53.938 C46.943,54.17 46.943,54.876 44.131,54.876 L40.381,54.876 C37.569,54.876 37.569,54.171 37.569,53.938 C37.569,53.42 37.15,53 36.631,53 L5.694,53 L5.694,5.188 C5.694,3.637 6.956,2.375 8.506,2.375 L8.506,2.375 Z M81.631,58.625 L2.881,58.625 C2.365,58.625 1.943,58.204 1.943,57.687 L1.943,55.812 C1.943,55.295 2.364,54.874 2.881,54.874 L35.853,54.874 C36.551,56.747 39.369,56.749 40.381,56.749 L44.131,56.749 C45.144,56.749 47.962,56.747 48.659,54.874 L81.631,54.874 C82.147,54.874 82.569,55.295 82.569,55.812 L82.569,57.687 C82.569,58.204 82.147,58.625 81.631,58.625 L81.631,58.625 Z" id="Shape" sketch:type="MSShapeGroup"></path>
            <path d="M47.813,36.125 C47.295,36.125 46.875,36.545 46.875,37.063 C46.875,39.649 44.773,41.751 42.187,41.751 C39.601,41.751 37.499,39.649 37.499,37.063 C37.499,36.545 37.08,36.125 36.561,36.125 C36.043,36.125 35.623,36.545 35.623,37.063 C35.623,40.681 38.567,43.625 42.185,43.625 C45.803,43.625 48.747,40.681 48.747,37.063 C48.751,36.545 48.332,36.125 47.813,36.125 L47.813,36.125 Z" id="Shape" sketch:type="MSShapeGroup"></path>
        </g>
    </g>
</svg>