<?xml version="1.0" encoding="UTF-8" standalone="no"?>
<svg width="171px" height="171px" viewBox="0 0 171 171" version="1.1" xmlns="http://www.w3.org/2000/svg" xmlns:xlink="http://www.w3.org/1999/xlink" xmlns:sketch="http://www.bohemiancoding.com/sketch/ns">
    <!-- Generator: Sketch 3.2.2 (9983) - http://www.bohemiancoding.com/sketch -->
    <title>Oval 3 + noun_16861_cc</title>
    <desc>Created with Sketch.</desc>
    <defs></defs>
    <g id="Page-1" stroke="none" stroke-width="1" fill="none" fill-rule="evenodd" sketch:type="MSPage">
        <g id="Oval-3-+-noun_16861_cc" sketch:type="MSLayerGroup">
            <circle id="Oval-3" fill="#000000" sketch:type="MSShapeGroup" cx="85.5" cy="85.5" r="85.5"></circle>
            <g id="noun_16861_cc" transform="translate(45.000000, 50.000000)" fill="#FFFFFF" sketch:type="MSShapeGroup">
                <g id="Your_Icon" transform="translate(0.500000, 0.000000)">
                    <path d="M81,9 L72.9,9 L72.9,0 L45,0 L45,9 L36,9 L36,0 L8.1,0 L8.1,9 L0,9 L0,36 L8.1,36 L8.1,45.9 L17.1,45.9 L17.1,54 L26.1,54 L26.1,63.9 L35.1,63.9 L35.1,72 L45.9,72 L45.9,63.9 L54.9,63.9 L54.9,54 L63.9,54 L63.9,45.9 L72.9,45.9 L72.9,36 L81,36 L81,9 L81,9 Z M54,45 L54,54 L44.1,54 L44.1,63 L36.9,63 L36.9,54 L27,54 L27,45 L18.9,45 L18.9,35.1 L9,35.1 L9,9.9 L35.1,9.9 L35.1,18 L45.9,18 L45.9,9.9 L72,9.9 L72,35.1 L62.1,35.1 L62.1,45 L54,45 L54,45 Z" id="Shape"></path>
                </g>
            </g>
        </g>
    </g>
</svg>