<?xml version="1.0" encoding="UTF-8" standalone="no"?>
<svg width="78px" height="101px" viewBox="0 0 78 101" version="1.1" xmlns="http://www.w3.org/2000/svg" xmlns:xlink="http://www.w3.org/1999/xlink" xmlns:sketch="http://www.bohemiancoding.com/sketch/ns">
    <!-- Generator: Sketch 3.2.2 (9983) - http://www.bohemiancoding.com/sketch -->
    <title>Launch_1_</title>
    <desc>Created with Sketch.</desc>
    <defs></defs>
    <g id="Page-1" stroke="none" stroke-width="1" fill="none" fill-rule="evenodd" sketch:type="MSPage">
        <g id="noun_3894_cc" sketch:type="MSLayerGroup" fill="#222">
            <path d="M64.907,65.612 L64.877,59.495 L65.114,59.183 C66.484,57.363 67.744,55.476 68.86,53.584 C72.064,48.162 74.392,42.306 75.776,36.176 L76.128,34.619 L77.024,31.456 C78.578,21.594 77.641,11.383 74.315,1.934 C74.315,1.934 73.954,0.912 73.666,0.092 C72.811,0.235 71.743,0.411 71.743,0.411 C61.86,2.062 52.467,6.17 44.58,12.295 L42.241,14.604 L41.048,15.663 C36.35,19.837 32.342,24.702 29.14,30.125 C27.963,32.116 26.872,34.24 25.903,36.44 L25.743,36.8 L20.739,39.527 C14.626,42.855 9.585,47.783 6.104,53.675 C4.243,56.826 2.826,60.252 1.931,63.86 C1.196,66.828 0.817,69.885 0.807,72.953 C0.807,72.953 0.803,73.964 0.8,74.775 C1.901,75.048 4.46,75.681 5.842,76.023 C6.128,74.692 6.615,72.428 6.615,72.428 C7.065,70.612 7.771,68.903 8.694,67.339 C11.012,63.413 14.711,60.402 19.228,58.911 L20.773,58.4 L20.753,60.029 L20.745,61.497 L20.767,63.304 L20.014,63.594 C16.903,64.793 14.228,66.834 12.281,69.499 C12.281,69.499 11.441,70.647 10.767,71.565 L40.913,89.37 C41.392,88.339 41.993,87.052 41.993,87.052 C43.315,84.205 43.841,81.054 43.504,77.938 L43.424,77.161 L45.435,76.085 L46.902,75.263 L48.324,74.546 L48.632,76.116 C49.559,80.835 48.719,85.581 46.361,89.573 C45.42,91.166 44.239,92.638 42.832,93.94 C42.832,93.94 41.177,95.378 40.185,96.24 C40.871,97.021 41.727,97.995 41.727,97.995 C41.727,97.995 42.951,99.322 43.665,100.093 C44.373,99.698 45.259,99.207 45.259,99.207 C47.93,97.724 50.427,95.917 52.678,93.834 C55.405,91.311 57.72,88.417 59.581,85.266 C63.062,79.37 64.943,72.576 64.907,65.612 L64.907,65.612 Z M5.742,65.494 C5.738,65.507 5.731,65.519 5.725,65.529 C5.721,65.537 5.713,65.546 5.707,65.554 L5.705,65.557 C5.388,66.095 5.133,66.681 4.864,67.252 C5.007,66.379 5.133,65.499 5.345,64.639 C6.157,61.378 7.43,58.285 9.107,55.436 C9.547,54.687 10.024,53.958 10.522,53.249 C10.557,53.201 10.591,53.154 10.626,53.106 C12.165,50.946 13.958,48.972 15.957,47.211 C17.211,46.109 22.225,42.796 23.628,41.869 C22.821,44.665 20.887,53.529 20.794,54.499 C15.727,56.315 8.394,61.008 5.742,65.494 L5.742,65.494 Z M50.959,12.158 C57.143,8.195 64.059,5.428 71.31,4.08 C73.407,10.4 74.344,17.045 74.156,23.667 C74.103,25.478 73.978,27.29 73.755,29.091 C71.022,27.476 50.97,15.631 48.231,14.015 C49.121,13.367 50.033,12.75 50.959,12.158 L50.959,12.158 Z M39.31,84.296 C37.195,83.045 18.102,71.77 15.985,70.519 C16.151,70.338 16.321,70.162 16.496,69.988 C16.537,69.948 16.578,69.906 16.617,69.867 C16.825,69.668 17.035,69.474 17.255,69.284 C18.474,68.229 19.868,67.388 21.409,66.809 L39.944,77.758 C40.195,79.471 40.117,81.181 39.734,82.834 C39.62,83.326 39.479,83.815 39.31,84.296 L39.31,84.296 Z M41.252,74.863 C40.139,74.206 25.057,65.298 23.944,64.64 C23.699,53.644 26.98,40.644 32.156,31.865 C32.849,30.693 33.585,29.552 34.36,28.437 C35.029,27.47 35.733,26.533 36.46,25.614 C36.658,25.365 36.852,25.111 37.053,24.86 C37.102,24.8 37.157,24.74 37.209,24.679 C38.976,22.539 43.222,18.077 45.938,16.322 L73.101,32.365 C72.464,35.066 71.474,40.39 69.734,43.89 C69.698,43.96 69.676,44.04 69.651,44.114 C69.53,44.413 69.401,44.705 69.278,44.998 C68.822,46.078 68.341,47.147 67.819,48.2 C67.219,49.407 66.579,50.596 65.891,51.765 C60.698,60.549 52.096,70.418 41.252,74.863 L41.252,74.863 Z M55.424,85.298 C55.309,85.465 55.193,85.633 55.073,85.798 C54.751,86.254 54.419,86.698 54.074,87.136 C53.845,87.429 53.609,87.718 53.37,88.003 C53.055,88.381 52.736,88.756 52.403,89.118 C52.256,89.287 52.102,89.452 51.95,89.613 C51.431,90.163 50.9,90.701 50.343,91.216 C49.694,91.82 48.985,92.351 48.29,92.903 C48.66,92.387 49.047,91.883 49.365,91.343 C49.375,91.33 49.381,91.315 49.389,91.299 C49.392,91.293 49.398,91.286 49.4,91.281 C49.427,91.236 49.451,91.184 49.478,91.136 C49.726,90.708 49.956,90.275 50.171,89.83 C50.295,89.582 50.407,89.33 50.521,89.075 C50.625,88.842 50.723,88.609 50.817,88.374 C50.952,88.048 51.08,87.718 51.196,87.386 C51.212,87.35 51.22,87.314 51.232,87.278 C52.441,83.774 52.102,77.263 51.491,73.455 C54.759,71.214 59.137,66.946 61.938,64.15 C61.847,65.286 60.991,70.81 60.799,71.926 C60.275,74.914 59.38,77.81 58.12,80.542 C58.036,80.726 57.949,80.906 57.862,81.086 C57.718,81.383 57.573,81.677 57.423,81.969 C57.192,82.407 56.956,82.84 56.706,83.268 C56.672,83.326 56.642,83.387 56.608,83.447 C56.234,84.075 55.834,84.69 55.424,85.298 L55.424,85.298 Z M57.765,11.765 C56.72,11.148 55.365,11.496 54.745,12.545 C54.127,13.592 54.476,14.945 55.523,15.565 C56.57,16.185 57.924,15.836 58.544,14.789 C59.162,13.739 58.813,12.383 57.765,11.765 L57.765,11.765 Z M56.112,14.564 C55.617,14.272 55.45,13.63 55.743,13.134 C56.038,12.636 56.679,12.473 57.174,12.766 C57.671,13.059 57.84,13.7 57.546,14.198 C57.251,14.695 56.61,14.858 56.112,14.564 L56.112,14.564 Z M70.971,19.564 C69.921,18.945 68.568,19.293 67.949,20.342 C67.33,21.389 67.678,22.742 68.728,23.363 C69.775,23.981 71.13,23.634 71.748,22.587 C72.367,21.539 72.018,20.184 70.971,19.564 L70.971,19.564 Z M69.316,22.365 C68.82,22.07 68.655,21.429 68.948,20.933 C69.241,20.434 69.882,20.271 70.379,20.566 C70.876,20.857 71.042,21.498 70.749,21.996 C70.454,22.492 69.813,22.658 69.316,22.365 L69.316,22.365 Z M64.622,15.814 C63.575,15.195 62.219,15.544 61.599,16.592 C60.981,17.639 61.33,18.992 62.378,19.613 C63.424,20.23 64.78,19.884 65.399,18.836 C66.018,17.788 65.669,16.433 64.622,15.814 L64.622,15.814 Z M62.968,18.614 C62.472,18.321 62.306,17.678 62.599,17.183 C62.894,16.685 63.535,16.521 64.03,16.815 C64.526,17.108 64.695,17.749 64.399,18.247 C64.105,18.744 63.463,18.906 62.968,18.614 L62.968,18.614 Z M54.952,31.776 C51.102,29.502 46.119,30.784 43.846,34.632 C41.574,38.48 42.855,43.465 46.705,45.737 C50.555,48.011 55.538,46.727 57.811,42.88 C60.084,39.033 58.801,34.05 54.952,31.776 L54.952,31.776 Z M47.296,44.738 C43.998,42.789 42.899,38.521 44.846,35.223 C46.795,31.924 51.064,30.827 54.362,32.776 C57.661,34.723 58.759,38.991 56.811,42.291 C54.863,45.589 50.596,46.687 47.296,44.738 L47.296,44.738 Z" id="Launch_1_" sketch:type="MSShapeGroup"></path>
        </g>
    </g>
</svg>
